<p>[gdigrab @ 0000000000344600] Capturing whole desktop as 1920x1080x32 at (0,0)
</p><p>[gdigrab @ 0000000000344600] </p><p>Stream #0: not enough frames to estimate rate; consider increasing probesize
</p><p>Input #0, gdigrab, from 'desktop':
  Duration: N/A, start: 1517442355.436631, bitrate: 1658890 kb/s
    Stream #0:0: Video: bmp, bgra, 1920x1080, 1658890 kb/s, 25 fps, 1000k tbr, 1000k tbn, 1000k tbc
</p><p>Guessed Channel Layout for Input Stream #1.0 : stereo
Input #1, dshow, from 'audio=立体声混音 (Realtek High Definition ':
  Duration: N/A, start: 6930.428000, bitrate: 1411 kb/</p><p>s
    Stream #1:0: Audio: pcm_s16le, 44100 Hz, stereo, s16, 1411 kb/s
</p><p>Stream mapping:
  Stream #0:0 -> #0:0 (bmp (native) -> h264 (libx264))
  Stream #1:0 -> #0:1 (pcm_s16le (native) -> aac (native))
Press [q] to stop, [?] for help
</p><p>[libx264 @ 00000000003bd500] </p><p>using cpu capabilities: MMX2 SSE2Fast SSSE3 SSE4.2 AVX FMA3 BMI2 AVX2
</p><p>[libx264 @ 00000000003bd500] </p><p>profile High, level 3.1
[libx264 @ 00000000003bd500] 264 - core 155 r2893 b00bcaf - H.264/MPEG-4 AVC codec - Copyleft 2003-2017 - http://www.videolan.org/x264.html - options: cabac=1 ref=3 deblock=1:0:0 analyse=0x3:0x113 me=hex subme=7 psy=1 psy_rd=1.00:0.00 mixed_ref=1 me_range=16 chroma_me=1 trellis=1 8x8dct=1 cqm=0 deadzone=21,11 fast_pskip=1 chroma_qp_offset=-2 threads=6 lookahead_threads=1 sliced_threads=0 nr=0 decimate=1 interlaced=0 bluray_compat=0 constrained_intra=0 bframes=3 b_pyramid=2 b_adapt=1 b_bias=0 direct=1 weightb=1 open_gop=0 weightp=2 keyint=250 keyint_min=25 scenecut=40 intra_refresh=0 rc_lookahead=40 rc=abr mbtree=1 bitrate=1024 ratetol=1.0 qcomp=0.60 qpmin=0 qpmax=69 qpstep=4 ip_ratio=1.40 aq=1:1.00
</p><p>Output #0, mp4, to 'C:\Users\Administrator\Desktop\fup00.mp4':
  Metadata:
    encoder         : Lavf58.6.100
    Stream #0:0: Video: h264 (libx264) (avc1 / 0x31637661), yuv420p(progressive), 1280x720, q=-1--1, 1024 kb/s, 25 fps, </p><p>12800 tbn, 25 tbc
    Metadata:
      encoder         : Lavc58.9.100 libx264
    Side data:
      cpb: bitrate max/min/avg: 0/0/1024000 buffer size: 0 vbv_delay: -1
    Stream #0:1: Audio: aac (LC) (mp4a / 0x6134706D), 44100 Hz, stereo, fltp, 128 kb/s
    Metadata:
      encoder         : Lavc58.9.100 aac
</p><p>[gdigrab @ 0000000000344600] </p><p>Thread message queue blocking; consider raising the thread_queue_size option (current value: 8)
</p><p>frame=   18 fps=0.0 q=0.0 size=       0kB time=00:00:00.44 bitrate=   0.9kbits/s speed=0.879x    </p><p>frame=   31 fps= 31 q=0.0 size=       0kB time=00:00:00.44 bitrate=   0.9kbits/s speed=0.439x    </p><p>frame=   43 fps= 29 q=0.0 size=       0kB time=00:00:00.44 bitrate=   0.9kbits/s speed=0.293x    </p><p>frame=   56 fps= 28 q=37.0 size=       0kB time=00:00:00.44 bitrate=   0.9kbits/s speed=0.219x    </p><p>frame=   68 fps= 27 q=31.0 size=       0kB time=00:00:00.96 bitrate=   0.4kbits/s speed=0.381x    </p><p>frame=   81 fps= 27 q=27.0 size=       0kB time=00:00:01.44 bitrate=   0.3kbits/s speed=0.479x    </p><p>frame=   93 fps= 26 q=25.0 size=       0kB time=00:00:01.95 bitrate=   0.2kbits/s speed=0.556x    </p><p>frame=  106 fps= 26 q=23.0 size=       0kB time=00:00:02.44 bitrate=   0.2kbits/s speed=0.607x    </p><p>frame=  119 fps= 26 q=20.0 size=       0kB time=00:00:02.95 bitrate=   0.1kbits/s speed=0.652x    </p><p>frame=  131 fps= 26 q=21.0 size=     256kB time=00:00:03.44 bitrate= 608.9kbits/s speed=0.683x    </p><p>frame=  144 fps= 26 q=18.0 size=     256kB time=00:00:03.95 bitrate= 530.3kbits/s speed=0.712x    </p><p>frame=  156 fps= 26 q=17.0 size=     256kB time=00:00:04.44 bitrate= 472.1kbits/s speed=0.734x    </p><p>frame=  170 fps= 26 q=19.0 size=     256kB time=00:00:04.95 bitrate= 423.4kbits/s speed=0.755x    </p><p>frame=  182 fps= 26 q=15.0 size=     256kB time=00:00:05.44 bitrate= 385.5kbits/s speed=0.77x    </p><p>frame=  195 fps= 26 q=14.0 size=     256kB time=00:00:05.95 bitrate= 352.4kbits/s speed=0.786x    </p><p>frame=  207 fps= 26 q=14.0 size=     512kB time=00:00:06.43 bitrate= 651.4kbits/s speed=0.798x    </p><p>frame=  220 fps= 26 q=13.0 size=     512kB time=00:00:06.95 bitrate= 603.5kbits/s speed=0.81x    </p><p>frame=  233 fps= 26 q=13.0 size=     512kB time=00:00:07.43 bitrate= 563.9kbits/s speed=0.819x    </p><p>frame=  245 fps= 26 q=12.0 size=     512kB time=00:00:07.94 bitrate= 527.7kbits/s speed=0.829x    </p><p>frame=  258 fps= 26 q=12.0 size=     512kB time=00:00:08.46 bitrate= 495.8kbits/s speed=0.838x    </p><p>frame=  270 fps= 25 q=11.0 size=     512kB time=00:00:08.94 bitrate= 468.8kbits/s speed=0.844x    </p><p>frame=  282 fps= 25 q=11.0 size=     512kB time=00:00:09.45 bitrate= 443.5kbits/s speed=0.852x    </p><p>frame=  296 fps= 25 q=8.0 size=     768kB time=00:00:09.94 bitrate= 632.6kbits/s speed=0.857x    </p><p>frame=  308 fps= 25 q=15.0 size=    1024kB time=00:00:10.45 bitrate= 802.2kbits/s speed=0.863x    </p><p>frame=  321 fps= 25 q=10.0 size=    1024kB time=00:00:10.94 bitrate= 766.5kbits/s speed=0.867x    </p><p>frame=  333 fps= 25 q=10.0 size=    1024kB time=00:00:11.45 bitrate= 732.3kbits/s speed=0.873x    </p><p>frame=  346 fps= 25 q=10.0 size=    1024kB time=00:00:11.94 bitrate= 702.4kbits/s speed=0.877x    </p><p>frame=  358 fps= 25 q=10.0 size=    1024kB time=00:00:12.45 bitrate= 673.6kbits/s speed=0.881x    </p><p>frame=  371 fps= 25 q=11.0 size=    1280kB time=00:00:12.94 bitrate= 810.3kbits/s speed=0.884x    </p><p>frame=  384 fps= 25 q=9.0 size=    1280kB time=00:00:13.45 bitrate= 779.5kbits/s speed=0.888x    </p><p>frame=  396 fps= 25 q=9.0 size=    1280kB time=00:00:13.93 bitrate= 752.2kbits/s speed=0.89x    </p><p>frame=  409 fps= 25 q=9.0 size=    1280kB time=00:00:14.45 bitrate= 725.6kbits/s speed=0.894x    </p><p>frame=  422 fps= 25 q=9.0 size=    1280kB time=00:00:14.93 bitrate= 702.0kbits/s speed=0.896x    </p><p>frame=  434 fps= 25 q=8.0 size=    1536kB time=00:00:15.44 bitrate= 814.5kbits/s speed= 0.9x    </p><p>frame=  447 fps= 25 q=8.0 size=    1536kB time=00:00:15.96 bitrate= 788.4kbits/s speed=0.903x    </p><p>frame=  460 fps= 25 q=8.0 size=    1536kB time=00:00:16.44 bitrate= 765.1kbits/s speed=0.905x    </p><p>frame=  472 fps= 25 q=8.0 size=    1536kB time=00:00:16.95 bitrate= 742.0kbits/s speed=0.908x    </p><p>frame=  485 fps= 25 q=8.0 size=    1536kB time=00:00:17.44 bitrate= 721.3kbits/s speed=0.909x    </p><p>frame=  498 fps= 25 q=8.0 size=    1792kB time=00:00:17.95 bitrate= 817.5kbits/s speed=0.912x    </p><p>frame=  511 fps= 25 q=7.0 size=    1792kB time=00:00:18.44 bitrate= 795.9kbits/s speed=0.913x    </p><p>frame=  517 fps= 25 q=-1.0 Lsize=    2272kB time=00:00:20.56 bitrate= 905.4kbits/s speed=0.991x    
video:1957kB audio:298kB subtitle:0kB other streams:0kB global headers:0kB muxing overhead: 0.775150%
[libx264 @ 00000000003bd500] frame I:4     Avg QP: 6.95  size:164746
[libx264 @ 00000000003bd500] frame P:137   Avg QP: 7.82  size:  8472
[libx264 @ 00000000003bd500] frame B:376   Avg QP:16.23  size:   489
[libx264 @ 00000000003bd500] consecutive B-frames:  2.7%  0.8%  0.6% 95.9%
[libx264 @ 00000000003bd500] mb I  I16..4: 59.0%  7.4% 33.6%
[libx264 @ 00000000003bd500] mb P  I16..4:  1.2%  0.2%  0.8%  P16..4:  6.2%  0.4%  0.6%  0.0%  0.0%    skip:90.6%
[libx264 @ 00000000003bd500] mb B  I16..4:  0.0%  0.0%  0.0%  B16..8:  3.7%  0.1%  0.0%  direct: 0.0%  skip:96.1%  L0:24.6% L1:74.9% BI: 0.5%
[libx264 @ 00000000003bd500] final ratefactor: 7.60
[libx264 @ 00000000003bd500] 8x8 transform intra:8.7% inter:43.6%
[libx264 @ 00000000003bd500] coded y,uvDC,uvAC intra: 33.2% 31.0% 28.8% inter: 0.9% 1.0% 0.8%
[libx264 @ 00000000003bd500] i16 v,h,dc,p: 60% 39%  1%  0%
[libx264 @ 00000000003bd500] i8 v,h,dc,ddl,ddr,vr,hd,vl,hu: 47%  7% 42%  0%  1%  1%  1%  0%  1%
[libx264 @ 00000000003bd500] i4 v,h,dc,ddl,ddr,vr,hd,vl,hu: 26% 42% 12%  2%  3%  3%  4%  3%  5%
[libx264 @ 00000000003bd500] i8c dc,h,v,p: 59% 29% 11%  1%
[libx264 @ 00000000003bd500] Weighted P-Frames: Y:0.0% UV:0.0%
[libx264 @ 00000000003bd500] ref P L0: 83.7%  2.1% 12.0%  2.2%
[libx264 @ 00000000003bd500] ref B L0: 70.9% 27.8%  1.3%
[libx264 @ 00000000003bd500] ref B L1: 95.5%  4.5%
[libx264 @ 00000000003bd500] kb/s:775.07
</p><p>[aac @ 00000000003c2400] </p><p>Qavg: 181.304
</p>